<?xml version="1.0" encoding="utf-8"?>
<svg viewBox="1123.261 437.984 42 42" width="42" height="42" xmlns="http://www.w3.org/2000/svg">
  <g transform="matrix(1.010648, 0, 0, 1.028188, -11.9605, -12.345764)">
    <circle style="stroke-width: 0.94658px; fill: rgb(29, 37, 50);" cx="1143.465" cy="458.174" r="19.501" transform="matrix(1.065523, 0, 0, 1.047346, -74.34861, -21.458693)"/>
    <path style="fill: rgb(255, 255, 255);" d="M 1144.73 471.952 C 1144.664 472.036 1144.572 472.1 1144.455 472.144 C 1144.248 472.221 1143.104 473.452 1143.117 472.693 C 1143.142 471.32 1143.142 469.939 1143.117 468.552 C 1141.13 468.777 1139.461 468.213 1137.846 467.33 C 1136.63 466.665 1135.42 466.071 1134.581 465.011 C 1133.543 463.701 1132.638 462.266 1132.062 460.591 C 1131.571 459.162 1131.364 457.426 1131.425 456.149 C 1131.518 454.207 1132.671 451.507 1133.655 450.681 C 1135.336 449.27 1135.018 449.244 1137.249 448.154 C 1138.865 447.364 1140.929 446.776 1140.982 446.926 C 1140.99 446.783 1142.178 446.776 1142.178 446.776 C 1142.178 447.993 1142.178 449.525 1142.178 450.681 C 1142.017 450.783 1142.359 450.598 1142.178 450.681 C 1142.178 450.681 1140.257 451.506 1138.965 452.054 C 1134.959 454.598 1135.288 458.674 1136.825 461.575 C 1139.538 466.695 1148.226 464.442 1148.85 459.629 C 1148.947 458.881 1153.364 459.113 1153.572 460.251 C 1154.407 464.827 1144.73 471.952 1144.73 471.952 Z"/>
    <path style="fill: rgb(1, 168, 241);" d="M 1145.739 443.984 C 1145.569 445.2 1145.299 447.94 1145.601 448 C 1151.344 449.14 1151.364 455.515 1151.357 456.149 C 1152.7 456.149 1154.232 456.075 1155.57 456.075 C 1155.677 454.803 1155.551 453.35 1155.098 451.724 C 1154.602 449.944 1153.329 448.16 1151.808 446.894 C 1150.023 445.408 1148.019 444.671 1145.739 443.984 Z"/>
  </g>
</svg>